<svg width="24" height="24" viewBox="0 0 24 24" fill="none" xmlns="http://www.w3.org/2000/svg">
<g id="instagram 2" clip-path="url(#clip0_297016_396)">
<path id="Vector" d="M23.9765 7.0561C23.9203 5.78088 23.7141 4.90419 23.4187 4.14452C23.1139 3.33815 22.6451 2.6162 22.0308 2.01605C21.4307 1.40656 20.704 0.932952 19.9069 0.632967C19.1429 0.33756 18.2708 0.131343 16.9955 0.0751184C15.7108 0.0141324 15.303 3.05176e-05 12.0445 3.05176e-05C8.78606 3.05176e-05 8.37821 0.0141324 7.09823 0.0703568C5.82302 0.126581 4.94633 0.332981 4.18684 0.628205C3.38029 0.932952 2.65835 1.40179 2.05819 2.01605C1.4487 2.6162 0.975279 3.34291 0.675111 4.13994C0.379704 4.90419 0.173487 5.77612 0.117263 7.05133C0.0562771 8.33607 0.0421753 8.74393 0.0421753 12.0024C0.0421753 15.2608 0.0562771 15.6687 0.112501 16.9487C0.168726 18.2239 0.375126 19.1006 0.670532 19.8602C0.975279 20.6666 1.4487 21.3885 2.05819 21.9887C2.65835 22.5982 3.38505 23.0718 4.18208 23.3718C4.94633 23.6672 5.81826 23.8734 7.09366 23.9296C8.37345 23.986 8.78148 24 12.0399 24C15.2984 24 15.7062 23.986 16.9862 23.9296C18.2614 23.8734 19.1381 23.6672 19.8976 23.3718C21.5105 22.7482 22.7857 21.473 23.4093 19.8602C23.7046 19.096 23.911 18.2239 23.9672 16.9487C24.0234 15.6687 24.0375 15.2608 24.0375 12.0024C24.0375 8.74393 24.0327 8.33607 23.9765 7.0561ZM21.8153 16.8549C21.7636 18.027 21.5667 18.6599 21.4027 19.0819C20.9994 20.1274 20.1696 20.9572 19.124 21.3605C18.7021 21.5246 18.0645 21.7215 16.897 21.773C15.6311 21.8294 15.2515 21.8433 12.0493 21.8433C8.84705 21.8433 8.46264 21.8294 7.20134 21.773C6.02924 21.7215 5.3963 21.5246 4.97435 21.3605C4.45404 21.1682 3.98044 20.8635 3.59603 20.465C3.19751 20.0758 2.89277 19.6069 2.70047 19.0866C2.53637 18.6647 2.3395 18.027 2.28803 16.8596C2.23163 15.5938 2.21771 15.2139 2.21771 12.0117C2.21771 8.80949 2.23163 8.42508 2.28803 7.16397C2.3395 5.99186 2.53637 5.35893 2.70047 4.93697C2.89277 4.41648 3.19751 3.94306 3.60079 3.55846C3.98978 3.15995 4.45862 2.8552 4.97911 2.66309C5.40107 2.49899 6.03876 2.30212 7.2061 2.25047C8.47198 2.19425 8.85181 2.18014 12.0538 2.18014C15.2608 2.18014 15.6405 2.19425 16.9018 2.25047C18.0739 2.30212 18.7068 2.49899 19.1288 2.66309C19.6491 2.8552 20.1227 3.15995 20.5071 3.55846C20.9056 3.94764 21.2104 4.41648 21.4027 4.93697C21.5667 5.35893 21.7636 5.99644 21.8153 7.16397C21.8715 8.42984 21.8856 8.80949 21.8856 12.0117C21.8856 15.2139 21.8715 15.589 21.8153 16.8549Z" fill="#F4F4FD"/>
<path id="Vector_2" d="M12.0445 5.83707C8.64086 5.83707 5.87927 8.59847 5.87927 12.0023C5.87927 15.4062 8.64086 18.1676 12.0445 18.1676C15.4484 18.1676 18.2098 15.4062 18.2098 12.0023C18.2098 8.59847 15.4484 5.83707 12.0445 5.83707ZM12.0445 16.0016C9.8364 16.0016 8.04528 14.2106 8.04528 12.0023C8.04528 9.79402 9.8364 8.00308 12.0445 8.00308C14.2529 8.00308 16.0438 9.79402 16.0438 12.0023C16.0438 14.2106 14.2529 16.0016 12.0445 16.0016Z" fill="#F4F4FD"/>
<path id="Vector_3" d="M19.893 5.59336C19.893 6.3882 19.2486 7.03267 18.4535 7.03267C17.6587 7.03267 17.0142 6.3882 17.0142 5.59336C17.0142 4.79835 17.6587 4.15405 18.4535 4.15405C19.2486 4.15405 19.893 4.79835 19.893 5.59336Z" fill="#F4F4FD"/>
</g>
<defs>
<clipPath id="clip0_297016_396">
<rect width="24" height="24" fill="white"/>
</clipPath>
</defs>
</svg>
