<svg width="24" height="24" viewBox="0 0 24 24" fill="none" xmlns="http://www.w3.org/2000/svg">
<g id="linkedin 1" clip-path="url(#clip0_297016_412)">
<path id="Vector" d="M23.994 24.0001V23.9991H24V15.1971C24 10.8911 23.073 7.5741 18.039 7.5741C15.619 7.5741 13.995 8.9021 13.332 10.1611H13.262V7.9761H8.48901V23.9991H13.459V16.0651C13.459 13.9761 13.855 11.9561 16.442 11.9561C18.991 11.9561 19.029 14.3401 19.029 16.1991V24.0001H23.994Z" fill="#F4F4FD"/>
<path id="Vector_2" d="M0.395996 7.97699H5.372V24H0.395996V7.97699Z" fill="#F4F4FD"/>
<path id="Vector_3" d="M2.882 3.05176e-05C1.291 3.05176e-05 0 1.29103 0 2.88203C0 4.47303 1.291 5.79103 2.882 5.79103C4.473 5.79103 5.764 4.47303 5.764 2.88203C5.763 1.29103 4.472 3.05176e-05 2.882 3.05176e-05V3.05176e-05Z" fill="#F4F4FD"/>
</g>
<defs>
<clipPath id="clip0_297016_412">
<rect width="24" height="24" fill="white"/>
</clipPath>
</defs>
</svg>
