<svg width="16" height="16" viewBox="0 0 16 16" fill="none" xmlns="http://www.w3.org/2000/svg">
<g id="linkedin 1" clip-path="url(#clip0_604859_356)">
<path id="Vector" d="M15.996 16V15.9993H16V10.1313C16 7.26062 15.382 5.04929 12.026 5.04929C10.4126 5.04929 9.32997 5.93462 8.88797 6.77395H8.8413V5.31729H5.6593V15.9993H8.97264V10.71C8.97264 9.31729 9.23664 7.97062 10.9613 7.97062C12.6606 7.97062 12.686 9.55995 12.686 10.7993V16H15.996Z" fill="#F4F4FD"/>
<path id="Vector_2" d="M0.264038 5.31787H3.58137V15.9999H0.264038V5.31787Z" fill="#F4F4FD"/>
<path id="Vector_3" d="M1.92133 -9.15527e-05C0.860667 -9.15527e-05 0 0.860575 0 1.92124C0 2.98191 0.860667 3.86058 1.92133 3.86058C2.982 3.86058 3.84267 2.98191 3.84267 1.92124C3.842 0.860575 2.98133 -9.15527e-05 1.92133 -9.15527e-05V-9.15527e-05Z" fill="#F4F4FD"/>
</g>
<defs>
<clipPath id="clip0_604859_356">
<rect width="16" height="16" fill="white"/>
</clipPath>
</defs>
</svg>
