<svg width="24" height="24" viewBox="0 0 24 24" fill="none" xmlns="http://www.w3.org/2000/svg">
<g id="twitter 1" clip-path="url(#clip0_297016_402)">
<g id="Group">
<g id="Group_2">
<path id="Vector" d="M24 4.55853C23.1075 4.95003 22.1565 5.20953 21.165 5.33553C22.185 4.72653 22.9635 3.76953 23.3295 2.61603C22.3785 3.18303 21.3285 3.58353 20.2095 3.80703C19.3065 2.84553 18.0195 2.25003 16.6155 2.25003C13.8915 2.25003 11.6985 4.46103 11.6985 7.17153C11.6985 7.56153 11.7315 7.93653 11.8125 8.29353C7.722 8.09403 4.1025 6.13353 1.671 3.14703C1.2465 3.88353 0.9975 4.72653 0.9975 5.63403C0.9975 7.33803 1.875 8.84853 3.183 9.72303C2.3925 9.70803 1.617 9.47853 0.96 9.11703C0.96 9.13203 0.96 9.15153 0.96 9.17103C0.96 11.562 2.6655 13.548 4.902 14.0055C4.5015 14.115 4.065 14.1675 3.612 14.1675C3.297 14.1675 2.979 14.1495 2.6805 14.0835C3.318 16.032 5.127 17.4645 7.278 17.511C5.604 18.8205 3.4785 19.6095 1.1775 19.6095C0.774 19.6095 0.387 19.5915 0 19.542C2.1795 20.9475 4.7625 21.75 7.548 21.75C16.602 21.75 21.552 14.25 21.552 7.74903C21.552 7.53153 21.5445 7.32153 21.534 7.11303C22.5105 6.42003 23.331 5.55453 24 4.55853Z" fill="#F4F4FD"/>
</g>
</g>
</g>
<defs>
<clipPath id="clip0_297016_402">
<rect width="24" height="24" fill="white"/>
</clipPath>
</defs>
</svg>
